<mxfile host="app.diagrams.net" modified="2024-02-26T19:45:36.443Z" agent="Mozilla/5.0 (Windows NT 10.0; Win64; x64) AppleWebKit/537.36 (KHTML, like Gecko) Chrome/122.0.0.0 Safari/537.36 Edg/122.0.0.0" etag="U4qFuXVzaOta61GIGtpL" version="23.1.7" type="github">
  <diagram id="R2lEEEUBdFMjLlhIrx00" name="Page-1">
    <mxGraphModel dx="906" dy="1705" grid="1" gridSize="10" guides="1" tooltips="1" connect="1" arrows="1" fold="1" page="1" pageScale="1" pageWidth="850" pageHeight="1100" math="0" shadow="0" extFonts="Permanent Marker^https://fonts.googleapis.com/css?family=Permanent+Marker">
      <root>
        <mxCell id="0" />
        <mxCell id="1" parent="0" />
        <mxCell id="MJyT1-4sS2kcRbcc9HkW-54" style="edgeStyle=none;rounded=0;orthogonalLoop=1;jettySize=auto;html=1;exitX=0.5;exitY=1;exitDx=0;exitDy=0;entryX=0.5;entryY=0;entryDx=0;entryDy=0;strokeColor=default;align=center;verticalAlign=middle;fontFamily=Helvetica;fontSize=11;fontColor=default;labelBackgroundColor=default;endArrow=none;endFill=0;" edge="1" parent="1" source="MJyT1-4sS2kcRbcc9HkW-1" target="MJyT1-4sS2kcRbcc9HkW-2">
          <mxGeometry relative="1" as="geometry" />
        </mxCell>
        <mxCell id="MJyT1-4sS2kcRbcc9HkW-82" style="edgeStyle=none;rounded=0;orthogonalLoop=1;jettySize=auto;html=1;exitX=1;exitY=0.5;exitDx=0;exitDy=0;entryX=0.5;entryY=0;entryDx=0;entryDy=0;strokeColor=default;align=center;verticalAlign=middle;fontFamily=Helvetica;fontSize=11;fontColor=default;labelBackgroundColor=default;endArrow=none;endFill=0;" edge="1" parent="1" source="MJyT1-4sS2kcRbcc9HkW-1" target="MJyT1-4sS2kcRbcc9HkW-60">
          <mxGeometry relative="1" as="geometry">
            <Array as="points">
              <mxPoint x="520" y="290" />
            </Array>
          </mxGeometry>
        </mxCell>
        <mxCell id="MJyT1-4sS2kcRbcc9HkW-1" value="Fornecedor" style="rounded=1;arcSize=10;whiteSpace=wrap;html=1;align=center;" vertex="1" parent="1">
          <mxGeometry x="190" y="270" width="100" height="40" as="geometry" />
        </mxCell>
        <mxCell id="MJyT1-4sS2kcRbcc9HkW-2" value="Produto" style="rounded=1;arcSize=10;whiteSpace=wrap;html=1;align=center;" vertex="1" parent="1">
          <mxGeometry x="190" y="467" width="100" height="40" as="geometry" />
        </mxCell>
        <mxCell id="MJyT1-4sS2kcRbcc9HkW-5" value="*" style="text;html=1;align=center;verticalAlign=middle;resizable=0;points=[];autosize=1;strokeColor=none;fillColor=none;fontFamily=Helvetica;fontSize=11;fontColor=default;labelBackgroundColor=default;" vertex="1" parent="1">
          <mxGeometry x="214" y="444" width="30" height="30" as="geometry" />
        </mxCell>
        <mxCell id="MJyT1-4sS2kcRbcc9HkW-89" style="edgeStyle=none;rounded=0;orthogonalLoop=1;jettySize=auto;html=1;exitX=1;exitY=0.5;exitDx=0;exitDy=0;entryX=0;entryY=0.75;entryDx=0;entryDy=0;strokeColor=default;align=center;verticalAlign=middle;fontFamily=Helvetica;fontSize=11;fontColor=default;labelBackgroundColor=default;endArrow=none;endFill=0;" edge="1" parent="1" source="MJyT1-4sS2kcRbcc9HkW-8" target="MJyT1-4sS2kcRbcc9HkW-2">
          <mxGeometry relative="1" as="geometry" />
        </mxCell>
        <mxCell id="MJyT1-4sS2kcRbcc9HkW-8" value="referÃªncia" style="ellipse;whiteSpace=wrap;html=1;align=center;fontFamily=Helvetica;fontSize=11;fontColor=default;labelBackgroundColor=default;" vertex="1" parent="1">
          <mxGeometry x="40" y="553.5" width="100" height="40" as="geometry" />
        </mxCell>
        <mxCell id="MJyT1-4sS2kcRbcc9HkW-87" style="edgeStyle=none;rounded=0;orthogonalLoop=1;jettySize=auto;html=1;exitX=1;exitY=0.5;exitDx=0;exitDy=0;entryX=0;entryY=0.25;entryDx=0;entryDy=0;strokeColor=default;align=center;verticalAlign=middle;fontFamily=Helvetica;fontSize=11;fontColor=default;labelBackgroundColor=default;endArrow=none;endFill=0;" edge="1" parent="1" source="MJyT1-4sS2kcRbcc9HkW-10" target="MJyT1-4sS2kcRbcc9HkW-2">
          <mxGeometry relative="1" as="geometry" />
        </mxCell>
        <mxCell id="MJyT1-4sS2kcRbcc9HkW-10" value="marca" style="ellipse;whiteSpace=wrap;html=1;align=center;fontFamily=Helvetica;fontSize=11;fontColor=default;labelBackgroundColor=default;" vertex="1" parent="1">
          <mxGeometry x="40" y="460" width="100" height="40" as="geometry" />
        </mxCell>
        <mxCell id="MJyT1-4sS2kcRbcc9HkW-88" style="edgeStyle=none;rounded=0;orthogonalLoop=1;jettySize=auto;html=1;exitX=1;exitY=0.5;exitDx=0;exitDy=0;entryX=0;entryY=0.5;entryDx=0;entryDy=0;strokeColor=default;align=center;verticalAlign=middle;fontFamily=Helvetica;fontSize=11;fontColor=default;labelBackgroundColor=default;endArrow=none;endFill=0;" edge="1" parent="1" source="MJyT1-4sS2kcRbcc9HkW-13" target="MJyT1-4sS2kcRbcc9HkW-2">
          <mxGeometry relative="1" as="geometry" />
        </mxCell>
        <mxCell id="MJyT1-4sS2kcRbcc9HkW-13" value="modelo" style="ellipse;whiteSpace=wrap;html=1;align=center;fontFamily=Helvetica;fontSize=11;fontColor=default;labelBackgroundColor=default;" vertex="1" parent="1">
          <mxGeometry x="40" y="507" width="100" height="40" as="geometry" />
        </mxCell>
        <mxCell id="MJyT1-4sS2kcRbcc9HkW-90" style="edgeStyle=none;rounded=0;orthogonalLoop=1;jettySize=auto;html=1;exitX=1;exitY=0.5;exitDx=0;exitDy=0;entryX=0;entryY=1;entryDx=0;entryDy=0;strokeColor=default;align=center;verticalAlign=middle;fontFamily=Helvetica;fontSize=11;fontColor=default;labelBackgroundColor=default;endArrow=none;endFill=0;" edge="1" parent="1" source="MJyT1-4sS2kcRbcc9HkW-16" target="MJyT1-4sS2kcRbcc9HkW-2">
          <mxGeometry relative="1" as="geometry" />
        </mxCell>
        <mxCell id="MJyT1-4sS2kcRbcc9HkW-16" value="tipo de produto" style="ellipse;whiteSpace=wrap;html=1;align=center;fontFamily=Helvetica;fontSize=11;fontColor=default;labelBackgroundColor=default;" vertex="1" parent="1">
          <mxGeometry x="40" y="610" width="100" height="40" as="geometry" />
        </mxCell>
        <mxCell id="MJyT1-4sS2kcRbcc9HkW-86" style="edgeStyle=none;rounded=0;orthogonalLoop=1;jettySize=auto;html=1;exitX=1;exitY=1;exitDx=0;exitDy=0;entryX=0;entryY=0;entryDx=0;entryDy=0;strokeColor=default;align=center;verticalAlign=middle;fontFamily=Helvetica;fontSize=11;fontColor=default;labelBackgroundColor=default;endArrow=none;endFill=0;" edge="1" parent="1" source="MJyT1-4sS2kcRbcc9HkW-18" target="MJyT1-4sS2kcRbcc9HkW-2">
          <mxGeometry relative="1" as="geometry" />
        </mxCell>
        <mxCell id="MJyT1-4sS2kcRbcc9HkW-18" value="quantid stock" style="ellipse;whiteSpace=wrap;html=1;align=center;fontFamily=Helvetica;fontSize=11;fontColor=default;labelBackgroundColor=default;" vertex="1" parent="1">
          <mxGeometry x="40" y="413.5" width="100" height="40" as="geometry" />
        </mxCell>
        <mxCell id="MJyT1-4sS2kcRbcc9HkW-50" style="edgeStyle=none;rounded=0;orthogonalLoop=1;jettySize=auto;html=1;exitX=0.5;exitY=1;exitDx=0;exitDy=0;entryX=0.5;entryY=0;entryDx=0;entryDy=0;strokeColor=default;align=center;verticalAlign=middle;fontFamily=Helvetica;fontSize=11;fontColor=default;labelBackgroundColor=default;endArrow=none;endFill=0;" edge="1" parent="1" source="MJyT1-4sS2kcRbcc9HkW-20" target="MJyT1-4sS2kcRbcc9HkW-1">
          <mxGeometry relative="1" as="geometry" />
        </mxCell>
        <mxCell id="MJyT1-4sS2kcRbcc9HkW-20" value="Representante" style="rounded=1;arcSize=10;whiteSpace=wrap;html=1;align=center;fontFamily=Helvetica;fontSize=11;fontColor=default;labelBackgroundColor=default;" vertex="1" parent="1">
          <mxGeometry x="190" y="90" width="100" height="40" as="geometry" />
        </mxCell>
        <mxCell id="MJyT1-4sS2kcRbcc9HkW-49" style="edgeStyle=none;rounded=0;orthogonalLoop=1;jettySize=auto;html=1;exitX=0.5;exitY=1;exitDx=0;exitDy=0;entryX=0.25;entryY=0;entryDx=0;entryDy=0;strokeColor=default;align=center;verticalAlign=middle;fontFamily=Helvetica;fontSize=11;fontColor=default;labelBackgroundColor=default;endArrow=none;endFill=0;" edge="1" parent="1" source="MJyT1-4sS2kcRbcc9HkW-25" target="MJyT1-4sS2kcRbcc9HkW-20">
          <mxGeometry relative="1" as="geometry" />
        </mxCell>
        <mxCell id="MJyT1-4sS2kcRbcc9HkW-25" value="nome" style="ellipse;whiteSpace=wrap;html=1;align=center;fontFamily=Helvetica;fontSize=11;fontColor=default;labelBackgroundColor=default;" vertex="1" parent="1">
          <mxGeometry x="90" y="20" width="100" height="40" as="geometry" />
        </mxCell>
        <mxCell id="MJyT1-4sS2kcRbcc9HkW-30" style="edgeStyle=none;rounded=0;orthogonalLoop=1;jettySize=auto;html=1;strokeColor=default;align=center;verticalAlign=middle;fontFamily=Helvetica;fontSize=11;fontColor=default;labelBackgroundColor=default;endArrow=none;endFill=0;" edge="1" parent="1" source="MJyT1-4sS2kcRbcc9HkW-26" target="MJyT1-4sS2kcRbcc9HkW-20">
          <mxGeometry relative="1" as="geometry" />
        </mxCell>
        <mxCell id="MJyT1-4sS2kcRbcc9HkW-26" value="email" style="ellipse;whiteSpace=wrap;html=1;align=center;fontFamily=Helvetica;fontSize=11;fontColor=default;labelBackgroundColor=default;" vertex="1" parent="1">
          <mxGeometry x="190" y="-10" width="100" height="40" as="geometry" />
        </mxCell>
        <mxCell id="MJyT1-4sS2kcRbcc9HkW-48" style="edgeStyle=none;rounded=0;orthogonalLoop=1;jettySize=auto;html=1;exitX=0.5;exitY=1;exitDx=0;exitDy=0;entryX=0.75;entryY=0;entryDx=0;entryDy=0;strokeColor=default;align=center;verticalAlign=middle;fontFamily=Helvetica;fontSize=11;fontColor=default;labelBackgroundColor=default;endArrow=none;endFill=0;" edge="1" parent="1" source="MJyT1-4sS2kcRbcc9HkW-27" target="MJyT1-4sS2kcRbcc9HkW-20">
          <mxGeometry relative="1" as="geometry" />
        </mxCell>
        <mxCell id="MJyT1-4sS2kcRbcc9HkW-27" value="telefone" style="ellipse;whiteSpace=wrap;html=1;align=center;fontFamily=Helvetica;fontSize=11;fontColor=default;labelBackgroundColor=default;" vertex="1" parent="1">
          <mxGeometry x="290" y="10" width="100" height="40" as="geometry" />
        </mxCell>
        <mxCell id="MJyT1-4sS2kcRbcc9HkW-57" style="edgeStyle=none;rounded=0;orthogonalLoop=1;jettySize=auto;html=1;exitX=1;exitY=0.5;exitDx=0;exitDy=0;entryX=0;entryY=0.5;entryDx=0;entryDy=0;strokeColor=default;align=center;verticalAlign=middle;fontFamily=Helvetica;fontSize=11;fontColor=default;labelBackgroundColor=default;endArrow=none;endFill=0;" edge="1" parent="1" source="MJyT1-4sS2kcRbcc9HkW-33" target="MJyT1-4sS2kcRbcc9HkW-1">
          <mxGeometry relative="1" as="geometry" />
        </mxCell>
        <mxCell id="MJyT1-4sS2kcRbcc9HkW-33" value="nome" style="ellipse;whiteSpace=wrap;html=1;align=center;fontFamily=Helvetica;fontSize=11;fontColor=default;labelBackgroundColor=default;" vertex="1" parent="1">
          <mxGeometry x="60" y="258" width="70" height="27" as="geometry" />
        </mxCell>
        <mxCell id="MJyT1-4sS2kcRbcc9HkW-56" style="edgeStyle=none;rounded=0;orthogonalLoop=1;jettySize=auto;html=1;exitX=1;exitY=0.5;exitDx=0;exitDy=0;entryX=0;entryY=0.25;entryDx=0;entryDy=0;strokeColor=default;align=center;verticalAlign=middle;fontFamily=Helvetica;fontSize=11;fontColor=default;labelBackgroundColor=default;endArrow=none;endFill=0;" edge="1" parent="1" source="MJyT1-4sS2kcRbcc9HkW-35" target="MJyT1-4sS2kcRbcc9HkW-1">
          <mxGeometry relative="1" as="geometry" />
        </mxCell>
        <mxCell id="MJyT1-4sS2kcRbcc9HkW-35" value="telefone" style="ellipse;whiteSpace=wrap;html=1;align=center;fontFamily=Helvetica;fontSize=11;fontColor=default;labelBackgroundColor=default;" vertex="1" parent="1">
          <mxGeometry x="60" y="221.5" width="70" height="27" as="geometry" />
        </mxCell>
        <mxCell id="MJyT1-4sS2kcRbcc9HkW-58" style="edgeStyle=none;rounded=0;orthogonalLoop=1;jettySize=auto;html=1;exitX=1;exitY=0.5;exitDx=0;exitDy=0;entryX=0;entryY=0.75;entryDx=0;entryDy=0;strokeColor=default;align=center;verticalAlign=middle;fontFamily=Helvetica;fontSize=11;fontColor=default;labelBackgroundColor=default;endArrow=none;endFill=0;" edge="1" parent="1" source="MJyT1-4sS2kcRbcc9HkW-36" target="MJyT1-4sS2kcRbcc9HkW-1">
          <mxGeometry relative="1" as="geometry" />
        </mxCell>
        <mxCell id="MJyT1-4sS2kcRbcc9HkW-36" value="email" style="ellipse;whiteSpace=wrap;html=1;align=center;fontFamily=Helvetica;fontSize=11;fontColor=default;labelBackgroundColor=default;" vertex="1" parent="1">
          <mxGeometry x="60" y="294.5" width="70" height="27" as="geometry" />
        </mxCell>
        <mxCell id="MJyT1-4sS2kcRbcc9HkW-59" style="edgeStyle=none;rounded=0;orthogonalLoop=1;jettySize=auto;html=1;exitX=1;exitY=0.5;exitDx=0;exitDy=0;entryX=0;entryY=1;entryDx=0;entryDy=0;strokeColor=default;align=center;verticalAlign=middle;fontFamily=Helvetica;fontSize=11;fontColor=default;labelBackgroundColor=default;endArrow=none;endFill=0;" edge="1" parent="1" source="MJyT1-4sS2kcRbcc9HkW-38" target="MJyT1-4sS2kcRbcc9HkW-1">
          <mxGeometry relative="1" as="geometry" />
        </mxCell>
        <mxCell id="MJyT1-4sS2kcRbcc9HkW-38" value="morada" style="ellipse;whiteSpace=wrap;html=1;align=center;fontFamily=Helvetica;fontSize=11;fontColor=default;labelBackgroundColor=default;" vertex="1" parent="1">
          <mxGeometry x="60" y="331.5" width="70" height="27" as="geometry" />
        </mxCell>
        <mxCell id="MJyT1-4sS2kcRbcc9HkW-51" value="1" style="text;html=1;align=center;verticalAlign=middle;resizable=0;points=[];autosize=1;strokeColor=none;fillColor=none;fontFamily=Helvetica;fontSize=11;fontColor=default;labelBackgroundColor=default;" vertex="1" parent="1">
          <mxGeometry x="235" y="128" width="30" height="30" as="geometry" />
        </mxCell>
        <mxCell id="MJyT1-4sS2kcRbcc9HkW-52" value="0..*" style="text;html=1;align=center;verticalAlign=middle;resizable=0;points=[];autosize=1;strokeColor=none;fillColor=none;fontFamily=Helvetica;fontSize=11;fontColor=default;labelBackgroundColor=default;" vertex="1" parent="1">
          <mxGeometry x="235" y="245" width="40" height="30" as="geometry" />
        </mxCell>
        <mxCell id="MJyT1-4sS2kcRbcc9HkW-55" value="*" style="text;html=1;align=center;verticalAlign=middle;resizable=0;points=[];autosize=1;strokeColor=none;fillColor=none;fontFamily=Helvetica;fontSize=11;fontColor=default;labelBackgroundColor=default;" vertex="1" parent="1">
          <mxGeometry x="214" y="306" width="30" height="30" as="geometry" />
        </mxCell>
        <mxCell id="MJyT1-4sS2kcRbcc9HkW-60" value="Encomenda" style="rounded=1;arcSize=10;whiteSpace=wrap;html=1;align=center;fontFamily=Helvetica;fontSize=11;fontColor=default;labelBackgroundColor=default;" vertex="1" parent="1">
          <mxGeometry x="470" y="467" width="100" height="40" as="geometry" />
        </mxCell>
        <mxCell id="MJyT1-4sS2kcRbcc9HkW-62" value="1..*" style="text;html=1;align=center;verticalAlign=middle;resizable=0;points=[];autosize=1;strokeColor=none;fillColor=none;fontFamily=Helvetica;fontSize=11;fontColor=default;labelBackgroundColor=default;" vertex="1" parent="1">
          <mxGeometry x="285" y="460" width="40" height="30" as="geometry" />
        </mxCell>
        <mxCell id="MJyT1-4sS2kcRbcc9HkW-63" value="*" style="text;html=1;align=center;verticalAlign=middle;resizable=0;points=[];autosize=1;strokeColor=none;fillColor=none;fontFamily=Helvetica;fontSize=11;fontColor=default;labelBackgroundColor=default;" vertex="1" parent="1">
          <mxGeometry x="447" y="465" width="30" height="30" as="geometry" />
        </mxCell>
        <mxCell id="MJyT1-4sS2kcRbcc9HkW-65" style="edgeStyle=none;rounded=0;orthogonalLoop=1;jettySize=auto;html=1;exitX=1;exitY=0.5;exitDx=0;exitDy=0;strokeColor=default;align=center;verticalAlign=middle;fontFamily=Helvetica;fontSize=11;fontColor=default;labelBackgroundColor=default;endArrow=none;endFill=0;entryX=0;entryY=0.5;entryDx=0;entryDy=0;" edge="1" parent="1" source="MJyT1-4sS2kcRbcc9HkW-64" target="MJyT1-4sS2kcRbcc9HkW-60">
          <mxGeometry relative="1" as="geometry">
            <mxPoint x="450" y="520" as="targetPoint" />
          </mxGeometry>
        </mxCell>
        <mxCell id="MJyT1-4sS2kcRbcc9HkW-66" style="edgeStyle=none;rounded=0;orthogonalLoop=1;jettySize=auto;html=1;exitX=0;exitY=0.5;exitDx=0;exitDy=0;strokeColor=default;align=center;verticalAlign=middle;fontFamily=Helvetica;fontSize=11;fontColor=default;labelBackgroundColor=default;endArrow=none;endFill=0;entryX=1;entryY=0.5;entryDx=0;entryDy=0;" edge="1" parent="1" source="MJyT1-4sS2kcRbcc9HkW-64" target="MJyT1-4sS2kcRbcc9HkW-2">
          <mxGeometry relative="1" as="geometry">
            <mxPoint x="310" y="530" as="targetPoint" />
          </mxGeometry>
        </mxCell>
        <mxCell id="MJyT1-4sS2kcRbcc9HkW-64" value="pertence" style="shape=rhombus;perimeter=rhombusPerimeter;whiteSpace=wrap;html=1;align=center;fontFamily=Helvetica;fontSize=11;fontColor=default;labelBackgroundColor=default;" vertex="1" parent="1">
          <mxGeometry x="339" y="472" width="86" height="30" as="geometry" />
        </mxCell>
        <mxCell id="MJyT1-4sS2kcRbcc9HkW-91" style="edgeStyle=none;rounded=0;orthogonalLoop=1;jettySize=auto;html=1;exitX=0;exitY=0.5;exitDx=0;exitDy=0;entryX=1;entryY=0;entryDx=0;entryDy=0;strokeColor=default;align=center;verticalAlign=middle;fontFamily=Helvetica;fontSize=11;fontColor=default;labelBackgroundColor=default;endArrow=none;endFill=0;" edge="1" parent="1" source="MJyT1-4sS2kcRbcc9HkW-68" target="MJyT1-4sS2kcRbcc9HkW-60">
          <mxGeometry relative="1" as="geometry" />
        </mxCell>
        <mxCell id="MJyT1-4sS2kcRbcc9HkW-68" value="data enc" style="ellipse;whiteSpace=wrap;html=1;align=center;fontFamily=Helvetica;fontSize=11;fontColor=default;labelBackgroundColor=default;" vertex="1" parent="1">
          <mxGeometry x="600" y="420" width="70" height="27" as="geometry" />
        </mxCell>
        <mxCell id="MJyT1-4sS2kcRbcc9HkW-92" style="edgeStyle=none;rounded=0;orthogonalLoop=1;jettySize=auto;html=1;exitX=0;exitY=0.5;exitDx=0;exitDy=0;entryX=1;entryY=0.25;entryDx=0;entryDy=0;strokeColor=default;align=center;verticalAlign=middle;fontFamily=Helvetica;fontSize=11;fontColor=default;labelBackgroundColor=default;endArrow=none;endFill=0;" edge="1" parent="1" source="MJyT1-4sS2kcRbcc9HkW-69" target="MJyT1-4sS2kcRbcc9HkW-60">
          <mxGeometry relative="1" as="geometry" />
        </mxCell>
        <mxCell id="MJyT1-4sS2kcRbcc9HkW-69" value="data entrega" style="ellipse;whiteSpace=wrap;html=1;align=center;fontFamily=Helvetica;fontSize=11;fontColor=default;labelBackgroundColor=default;" vertex="1" parent="1">
          <mxGeometry x="610" y="460" width="70" height="27" as="geometry" />
        </mxCell>
        <mxCell id="MJyT1-4sS2kcRbcc9HkW-71" value="preÃ§o unitario" style="ellipse;whiteSpace=wrap;html=1;align=center;fontFamily=Helvetica;fontSize=11;fontColor=default;labelBackgroundColor=default;" vertex="1" parent="1">
          <mxGeometry x="390" y="526.5" width="70" height="27" as="geometry" />
        </mxCell>
        <mxCell id="MJyT1-4sS2kcRbcc9HkW-76" style="edgeStyle=none;rounded=0;orthogonalLoop=1;jettySize=auto;html=1;exitX=0.5;exitY=0;exitDx=0;exitDy=0;entryX=0;entryY=1;entryDx=0;entryDy=0;strokeColor=default;align=center;verticalAlign=middle;fontFamily=Helvetica;fontSize=11;fontColor=default;labelBackgroundColor=default;endArrow=none;endFill=0;" edge="1" parent="1" source="MJyT1-4sS2kcRbcc9HkW-72" target="MJyT1-4sS2kcRbcc9HkW-64">
          <mxGeometry relative="1" as="geometry" />
        </mxCell>
        <mxCell id="MJyT1-4sS2kcRbcc9HkW-72" value="quantidade" style="ellipse;whiteSpace=wrap;html=1;align=center;fontFamily=Helvetica;fontSize=11;fontColor=default;labelBackgroundColor=default;" vertex="1" parent="1">
          <mxGeometry x="300" y="526.5" width="70" height="27" as="geometry" />
        </mxCell>
        <mxCell id="MJyT1-4sS2kcRbcc9HkW-75" style="edgeStyle=none;rounded=0;orthogonalLoop=1;jettySize=auto;html=1;exitX=0.5;exitY=1;exitDx=0;exitDy=0;entryX=0;entryY=0;entryDx=0;entryDy=0;strokeColor=default;align=center;verticalAlign=middle;fontFamily=Helvetica;fontSize=11;fontColor=default;labelBackgroundColor=default;endArrow=none;endFill=0;" edge="1" parent="1" source="MJyT1-4sS2kcRbcc9HkW-73" target="MJyT1-4sS2kcRbcc9HkW-64">
          <mxGeometry relative="1" as="geometry" />
        </mxCell>
        <mxCell id="MJyT1-4sS2kcRbcc9HkW-73" value="descontos" style="ellipse;whiteSpace=wrap;html=1;align=center;fontFamily=Helvetica;fontSize=11;fontColor=default;labelBackgroundColor=default;" vertex="1" parent="1">
          <mxGeometry x="305" y="410" width="70" height="27" as="geometry" />
        </mxCell>
        <mxCell id="MJyT1-4sS2kcRbcc9HkW-78" style="edgeStyle=none;rounded=0;orthogonalLoop=1;jettySize=auto;html=1;exitX=0.5;exitY=1;exitDx=0;exitDy=0;entryX=1;entryY=0;entryDx=0;entryDy=0;strokeColor=default;align=center;verticalAlign=middle;fontFamily=Helvetica;fontSize=11;fontColor=default;labelBackgroundColor=default;endArrow=none;endFill=0;" edge="1" parent="1" source="MJyT1-4sS2kcRbcc9HkW-74" target="MJyT1-4sS2kcRbcc9HkW-64">
          <mxGeometry relative="1" as="geometry" />
        </mxCell>
        <mxCell id="MJyT1-4sS2kcRbcc9HkW-74" value="preÃ§o total linha" style="ellipse;whiteSpace=wrap;html=1;align=center;fontFamily=Helvetica;fontSize=11;fontColor=default;labelBackgroundColor=default;" vertex="1" parent="1">
          <mxGeometry x="387" y="410" width="83" height="31" as="geometry" />
        </mxCell>
        <mxCell id="MJyT1-4sS2kcRbcc9HkW-77" style="edgeStyle=none;rounded=0;orthogonalLoop=1;jettySize=auto;html=1;exitX=0.5;exitY=0;exitDx=0;exitDy=0;entryX=0.686;entryY=0.933;entryDx=0;entryDy=0;entryPerimeter=0;strokeColor=default;align=center;verticalAlign=middle;fontFamily=Helvetica;fontSize=11;fontColor=default;labelBackgroundColor=default;endArrow=none;endFill=0;" edge="1" parent="1" source="MJyT1-4sS2kcRbcc9HkW-71" target="MJyT1-4sS2kcRbcc9HkW-64">
          <mxGeometry relative="1" as="geometry" />
        </mxCell>
        <mxCell id="MJyT1-4sS2kcRbcc9HkW-93" style="edgeStyle=none;rounded=0;orthogonalLoop=1;jettySize=auto;html=1;exitX=0;exitY=0.5;exitDx=0;exitDy=0;entryX=1;entryY=0.5;entryDx=0;entryDy=0;strokeColor=default;align=center;verticalAlign=middle;fontFamily=Helvetica;fontSize=11;fontColor=default;labelBackgroundColor=default;endArrow=none;endFill=0;" edge="1" parent="1" source="MJyT1-4sS2kcRbcc9HkW-79" target="MJyT1-4sS2kcRbcc9HkW-60">
          <mxGeometry relative="1" as="geometry" />
        </mxCell>
        <mxCell id="MJyT1-4sS2kcRbcc9HkW-79" value="total descontos" style="ellipse;whiteSpace=wrap;html=1;align=center;fontFamily=Helvetica;fontSize=11;fontColor=default;labelBackgroundColor=default;" vertex="1" parent="1">
          <mxGeometry x="605" y="502" width="80" height="30" as="geometry" />
        </mxCell>
        <mxCell id="MJyT1-4sS2kcRbcc9HkW-94" style="edgeStyle=none;rounded=0;orthogonalLoop=1;jettySize=auto;html=1;exitX=0;exitY=0.5;exitDx=0;exitDy=0;entryX=1;entryY=1;entryDx=0;entryDy=0;strokeColor=default;align=center;verticalAlign=middle;fontFamily=Helvetica;fontSize=11;fontColor=default;labelBackgroundColor=default;endArrow=none;endFill=0;" edge="1" parent="1" source="MJyT1-4sS2kcRbcc9HkW-80" target="MJyT1-4sS2kcRbcc9HkW-60">
          <mxGeometry relative="1" as="geometry" />
        </mxCell>
        <mxCell id="MJyT1-4sS2kcRbcc9HkW-80" value="preÃ§o total" style="ellipse;whiteSpace=wrap;html=1;align=center;fontFamily=Helvetica;fontSize=11;fontColor=default;labelBackgroundColor=default;" vertex="1" parent="1">
          <mxGeometry x="610" y="547" width="70" height="27" as="geometry" />
        </mxCell>
        <mxCell id="MJyT1-4sS2kcRbcc9HkW-83" value="1" style="text;html=1;align=center;verticalAlign=middle;resizable=0;points=[];autosize=1;strokeColor=none;fillColor=none;fontFamily=Helvetica;fontSize=11;fontColor=default;labelBackgroundColor=default;" vertex="1" parent="1">
          <mxGeometry x="285" y="264.5" width="30" height="30" as="geometry" />
        </mxCell>
        <mxCell id="MJyT1-4sS2kcRbcc9HkW-84" value="0..*" style="text;html=1;align=center;verticalAlign=middle;resizable=0;points=[];autosize=1;strokeColor=none;fillColor=none;fontFamily=Helvetica;fontSize=11;fontColor=default;labelBackgroundColor=default;" vertex="1" parent="1">
          <mxGeometry x="513" y="442" width="40" height="30" as="geometry" />
        </mxCell>
        <mxCell id="MJyT1-4sS2kcRbcc9HkW-96" value="Venda" style="rounded=1;arcSize=10;whiteSpace=wrap;html=1;align=center;fontFamily=Helvetica;fontSize=11;fontColor=default;labelBackgroundColor=default;" vertex="1" parent="1">
          <mxGeometry x="470" y="695" width="100" height="40" as="geometry" />
        </mxCell>
        <mxCell id="MJyT1-4sS2kcRbcc9HkW-98" style="edgeStyle=none;rounded=0;orthogonalLoop=1;jettySize=auto;html=1;exitX=1;exitY=0.5;exitDx=0;exitDy=0;strokeColor=default;align=center;verticalAlign=middle;fontFamily=Helvetica;fontSize=11;fontColor=default;labelBackgroundColor=default;endArrow=none;endFill=0;entryX=0;entryY=0.5;entryDx=0;entryDy=0;" edge="1" parent="1" source="MJyT1-4sS2kcRbcc9HkW-99" target="MJyT1-4sS2kcRbcc9HkW-96">
          <mxGeometry relative="1" as="geometry">
            <mxPoint x="445" y="760" as="targetPoint" />
          </mxGeometry>
        </mxCell>
        <mxCell id="MJyT1-4sS2kcRbcc9HkW-117" style="edgeStyle=none;rounded=0;orthogonalLoop=1;jettySize=auto;html=1;exitX=0.5;exitY=0;exitDx=0;exitDy=0;entryX=0.5;entryY=1;entryDx=0;entryDy=0;strokeColor=default;align=center;verticalAlign=middle;fontFamily=Helvetica;fontSize=11;fontColor=default;labelBackgroundColor=default;endArrow=none;endFill=0;" edge="1" parent="1" source="MJyT1-4sS2kcRbcc9HkW-99" target="MJyT1-4sS2kcRbcc9HkW-2">
          <mxGeometry relative="1" as="geometry" />
        </mxCell>
        <mxCell id="MJyT1-4sS2kcRbcc9HkW-99" value="pertence" style="shape=rhombus;perimeter=rhombusPerimeter;whiteSpace=wrap;html=1;align=center;fontFamily=Helvetica;fontSize=11;fontColor=default;labelBackgroundColor=default;" vertex="1" parent="1">
          <mxGeometry x="197" y="700" width="86" height="30" as="geometry" />
        </mxCell>
        <mxCell id="MJyT1-4sS2kcRbcc9HkW-100" style="edgeStyle=none;rounded=0;orthogonalLoop=1;jettySize=auto;html=1;exitX=0;exitY=0.5;exitDx=0;exitDy=0;entryX=1;entryY=0.25;entryDx=0;entryDy=0;strokeColor=default;align=center;verticalAlign=middle;fontFamily=Helvetica;fontSize=11;fontColor=default;labelBackgroundColor=default;endArrow=none;endFill=0;" edge="1" parent="1" source="MJyT1-4sS2kcRbcc9HkW-101" target="MJyT1-4sS2kcRbcc9HkW-96">
          <mxGeometry relative="1" as="geometry" />
        </mxCell>
        <mxCell id="MJyT1-4sS2kcRbcc9HkW-101" value="data hora" style="ellipse;whiteSpace=wrap;html=1;align=center;fontFamily=Helvetica;fontSize=11;fontColor=default;labelBackgroundColor=default;" vertex="1" parent="1">
          <mxGeometry x="605" y="673" width="70" height="27" as="geometry" />
        </mxCell>
        <mxCell id="MJyT1-4sS2kcRbcc9HkW-104" value="preÃ§o unitario" style="ellipse;whiteSpace=wrap;html=1;align=center;fontFamily=Helvetica;fontSize=11;fontColor=default;labelBackgroundColor=default;" vertex="1" parent="1">
          <mxGeometry x="265" y="787" width="70" height="27" as="geometry" />
        </mxCell>
        <mxCell id="MJyT1-4sS2kcRbcc9HkW-105" style="edgeStyle=none;rounded=0;orthogonalLoop=1;jettySize=auto;html=1;exitX=0.5;exitY=0;exitDx=0;exitDy=0;entryX=0;entryY=1;entryDx=0;entryDy=0;strokeColor=default;align=center;verticalAlign=middle;fontFamily=Helvetica;fontSize=11;fontColor=default;labelBackgroundColor=default;endArrow=none;endFill=0;" edge="1" parent="1" source="MJyT1-4sS2kcRbcc9HkW-106" target="MJyT1-4sS2kcRbcc9HkW-99">
          <mxGeometry relative="1" as="geometry" />
        </mxCell>
        <mxCell id="MJyT1-4sS2kcRbcc9HkW-106" value="quantidade" style="ellipse;whiteSpace=wrap;html=1;align=center;fontFamily=Helvetica;fontSize=11;fontColor=default;labelBackgroundColor=default;" vertex="1" parent="1">
          <mxGeometry x="170" y="780" width="70" height="27" as="geometry" />
        </mxCell>
        <mxCell id="MJyT1-4sS2kcRbcc9HkW-109" style="edgeStyle=none;rounded=0;orthogonalLoop=1;jettySize=auto;html=1;exitX=0.5;exitY=1;exitDx=0;exitDy=0;entryX=1;entryY=0;entryDx=0;entryDy=0;strokeColor=default;align=center;verticalAlign=middle;fontFamily=Helvetica;fontSize=11;fontColor=default;labelBackgroundColor=default;endArrow=none;endFill=0;" edge="1" parent="1" source="MJyT1-4sS2kcRbcc9HkW-110" target="MJyT1-4sS2kcRbcc9HkW-99">
          <mxGeometry relative="1" as="geometry" />
        </mxCell>
        <mxCell id="MJyT1-4sS2kcRbcc9HkW-110" value="preÃ§o total linha" style="ellipse;whiteSpace=wrap;html=1;align=center;fontFamily=Helvetica;fontSize=11;fontColor=default;labelBackgroundColor=default;" vertex="1" parent="1">
          <mxGeometry x="325" y="629" width="83" height="31" as="geometry" />
        </mxCell>
        <mxCell id="MJyT1-4sS2kcRbcc9HkW-111" style="edgeStyle=none;rounded=0;orthogonalLoop=1;jettySize=auto;html=1;exitX=0.5;exitY=0;exitDx=0;exitDy=0;entryX=0.686;entryY=0.933;entryDx=0;entryDy=0;entryPerimeter=0;strokeColor=default;align=center;verticalAlign=middle;fontFamily=Helvetica;fontSize=11;fontColor=default;labelBackgroundColor=default;endArrow=none;endFill=0;" edge="1" parent="1" source="MJyT1-4sS2kcRbcc9HkW-104" target="MJyT1-4sS2kcRbcc9HkW-99">
          <mxGeometry relative="1" as="geometry" />
        </mxCell>
        <mxCell id="MJyT1-4sS2kcRbcc9HkW-112" style="edgeStyle=none;rounded=0;orthogonalLoop=1;jettySize=auto;html=1;exitX=0;exitY=0.5;exitDx=0;exitDy=0;entryX=1;entryY=0.5;entryDx=0;entryDy=0;strokeColor=default;align=center;verticalAlign=middle;fontFamily=Helvetica;fontSize=11;fontColor=default;labelBackgroundColor=default;endArrow=none;endFill=0;" edge="1" parent="1" source="MJyT1-4sS2kcRbcc9HkW-113" target="MJyT1-4sS2kcRbcc9HkW-96">
          <mxGeometry relative="1" as="geometry" />
        </mxCell>
        <mxCell id="MJyT1-4sS2kcRbcc9HkW-113" value="total descontos" style="ellipse;whiteSpace=wrap;html=1;align=center;fontFamily=Helvetica;fontSize=11;fontColor=default;labelBackgroundColor=default;" vertex="1" parent="1">
          <mxGeometry x="600" y="710" width="80" height="30" as="geometry" />
        </mxCell>
        <mxCell id="MJyT1-4sS2kcRbcc9HkW-114" style="edgeStyle=none;rounded=0;orthogonalLoop=1;jettySize=auto;html=1;exitX=0;exitY=0.5;exitDx=0;exitDy=0;entryX=1;entryY=1;entryDx=0;entryDy=0;strokeColor=default;align=center;verticalAlign=middle;fontFamily=Helvetica;fontSize=11;fontColor=default;labelBackgroundColor=default;endArrow=none;endFill=0;" edge="1" parent="1" source="MJyT1-4sS2kcRbcc9HkW-115" target="MJyT1-4sS2kcRbcc9HkW-96">
          <mxGeometry relative="1" as="geometry" />
        </mxCell>
        <mxCell id="MJyT1-4sS2kcRbcc9HkW-115" value="preÃ§o total" style="ellipse;whiteSpace=wrap;html=1;align=center;fontFamily=Helvetica;fontSize=11;fontColor=default;labelBackgroundColor=default;" vertex="1" parent="1">
          <mxGeometry x="605" y="753" width="70" height="27" as="geometry" />
        </mxCell>
        <mxCell id="MJyT1-4sS2kcRbcc9HkW-118" value="*" style="text;html=1;align=center;verticalAlign=middle;resizable=0;points=[];autosize=1;strokeColor=none;fillColor=none;fontFamily=Helvetica;fontSize=11;fontColor=default;labelBackgroundColor=default;" vertex="1" parent="1">
          <mxGeometry x="445" y="688" width="30" height="30" as="geometry" />
        </mxCell>
        <mxCell id="MJyT1-4sS2kcRbcc9HkW-119" value="1..*" style="text;html=1;align=center;verticalAlign=middle;resizable=0;points=[];autosize=1;strokeColor=none;fillColor=none;fontFamily=Helvetica;fontSize=11;fontColor=default;labelBackgroundColor=default;" vertex="1" parent="1">
          <mxGeometry x="235" y="502" width="40" height="30" as="geometry" />
        </mxCell>
      </root>
    </mxGraphModel>
  </diagram>
</mxfile>
